HIERARCHY
ROOT Hips
{
    OFFSET   0.000000   0.000000   0.000000
    CHANNELS 6 Xposition Yposition Zposition Zrotation Xrotation Yrotation
    JOINT Chest
    {
        OFFSET   0.000000   8.007240   0.000000
        CHANNELS 3 Zrotation Xrotation Yrotation
        JOINT Chest2
        {
            OFFSET   0.000000  22.077100   0.000000
            CHANNELS 3 Zrotation Xrotation Yrotation
            JOINT Neck
            {
                OFFSET   0.000000  23.254800   0.000000
                CHANNELS 3 Zrotation Xrotation Yrotation
                JOINT Head
                {
                    OFFSET   0.000000  14.370000   1.956600
                    CHANNELS 3 Zrotation Xrotation Yrotation
                    End Site
                    {
                        OFFSET   0.000000  19.566000   0.000000
                    }
                }
            }
            JOINT LeftCollar
            {
                OFFSET   3.911900  19.017000  -0.467064
                CHANNELS 3 Zrotation Xrotation Yrotation
                JOINT LeftShoulder
                {
                    OFFSET  10.383700   0.000000   0.000000
                    CHANNELS 3 Zrotation Xrotation Yrotation
                    JOINT LeftElbow
                    {
                        OFFSET  26.662100   0.001476   0.000517
                        CHANNELS 3 Zrotation Xrotation Yrotation
                        JOINT LeftWrist
                        {
                            OFFSET  28.869000  -0.000025  -0.000106
                            CHANNELS 3 Zrotation Xrotation Yrotation
                            JOINT LeftFinger0
                            {
                                OFFSET   2.044660  -2.323460   3.252850
                                CHANNELS 3 Zrotation Xrotation Yrotation
                                JOINT LeftFinger01
                                {
                                    OFFSET   3.088130   0.000000   0.000000
                                    CHANNELS 3 Zrotation Xrotation Yrotation
                                    JOINT LeftFinger02
                                    {
                                        OFFSET   2.639460   0.000000   0.000000
                                        CHANNELS 3 Zrotation Xrotation Yrotation
                                        End Site
                                        {
                                            OFFSET   2.582190   0.000000   0.000000
                                        }
                                    }
                                }
                            }
                            JOINT LeftFinger1
                            {
                                OFFSET   8.364480   0.000000   3.252850
                                CHANNELS 3 Zrotation Xrotation Yrotation
                                JOINT LeftFinger11
                                {
                                    OFFSET   4.646930   0.000000   0.000000
                                    CHANNELS 3 Zrotation Xrotation Yrotation
                                    JOINT LeftFinger12
                                    {
                                        OFFSET   2.323460   0.000000   0.000000
                                        CHANNELS 3 Zrotation Xrotation Yrotation
                                        End Site
                                        {
                                            OFFSET   2.273050   0.000000   0.000000
                                        }
                                    }
                                }
                            }
                            JOINT LeftFinger2
                            {
                                OFFSET   8.364490   0.000015   1.078090
                                CHANNELS 3 Zrotation Xrotation Yrotation
                                JOINT LeftFinger21
                                {
                                    OFFSET   5.111620   0.000000   0.000000
                                    CHANNELS 3 Zrotation Xrotation Yrotation
                                    JOINT LeftFinger22
                                    {
                                        OFFSET   2.788160   0.000016   0.000000
                                        CHANNELS 3 Zrotation Xrotation Yrotation
                                        End Site
                                        {
                                            OFFSET   2.727660   0.000000   0.000000
                                        }
                                    }
                                }
                            }
                            JOINT LeftFinger3
                            {
                                OFFSET   7.899780   0.000017  -1.078090
                                CHANNELS 3 Zrotation Xrotation Yrotation
                                JOINT LeftFinger31
                                {
                                    OFFSET   4.646930   0.000000   0.000000
                                    CHANNELS 3 Zrotation Xrotation Yrotation
                                    JOINT LeftFinger32
                                    {
                                        OFFSET   2.323470   0.000000   0.000000
                                        CHANNELS 3 Zrotation Xrotation Yrotation
                                        End Site
                                        {
                                            OFFSET   2.273050   0.000000   0.000000
                                        }
                                    }
                                }
                            }
                            JOINT LeftFinger4
                            {
                                OFFSET   7.435090   0.000000  -3.252850
                                CHANNELS 3 Zrotation Xrotation Yrotation
                                JOINT LeftFinger41
                                {
                                    OFFSET   3.717550   0.000000   0.000000
                                    CHANNELS 3 Zrotation Xrotation Yrotation
                                    JOINT LeftFinger42
                                    {
                                        OFFSET   1.858770   0.000000   0.000000
                                        CHANNELS 3 Zrotation Xrotation Yrotation
                                        End Site
                                        {
                                            OFFSET   1.818440   0.000000   0.000000
                                        }
                                    }
                                }
                            }
                        }
                    }
                }
            }
            JOINT RightCollar
            {
                OFFSET  -3.911900  19.017000  -0.467063
                CHANNELS 3 Zrotation Xrotation Yrotation
                JOINT RightShoulder
                {
                    OFFSET -10.383700   0.000019   0.000000
                    CHANNELS 3 Zrotation Xrotation Yrotation
                    JOINT RightElbow
                    {
                        OFFSET -26.662100   0.001175   0.000102
                        CHANNELS 3 Zrotation Xrotation Yrotation
                        JOINT RightWrist
                        {
                            OFFSET -28.869000   0.000016  -0.000079
                            CHANNELS 3 Zrotation Xrotation Yrotation
                            JOINT RightFinger0
                            {
                                OFFSET  -2.044660  -2.323490   3.252850
                                CHANNELS 3 Zrotation Xrotation Yrotation
                                JOINT RightFinger01
                                {
                                    OFFSET  -3.088140   0.000000   0.000000
                                    CHANNELS 3 Zrotation Xrotation Yrotation
                                    JOINT RightFinger02
                                    {
                                        OFFSET  -2.639460   0.000000   0.000000
                                        CHANNELS 3 Zrotation Xrotation Yrotation
                                        End Site
                                        {
                                            OFFSET  -2.582190   0.000000   0.000000
                                        }
                                    }
                                }
                            }
                            JOINT RightFinger1
                            {
                                OFFSET  -8.364480   0.000000   3.252850
                                CHANNELS 3 Zrotation Xrotation Yrotation
                                JOINT RightFinger11
                                {
                                    OFFSET  -4.646930   0.000000   0.000000
                                    CHANNELS 3 Zrotation Xrotation Yrotation
                                    JOINT RightFinger12
                                    {
                                        OFFSET  -2.323470   0.000000   0.000000
                                        CHANNELS 3 Zrotation Xrotation Yrotation
                                        End Site
                                        {
                                            OFFSET  -2.273050   0.000000   0.000000
                                        }
                                    }
                                }
                            }
                            JOINT RightFinger2
                            {
                                OFFSET  -8.364480   0.000000   1.078090
                                CHANNELS 3 Zrotation Xrotation Yrotation
                                JOINT RightFinger21
                                {
                                    OFFSET  -5.111620   0.000000   0.000000
                                    CHANNELS 3 Zrotation Xrotation Yrotation
                                    JOINT RightFinger22
                                    {
                                        OFFSET  -2.788160   0.000000   0.000000
                                        CHANNELS 3 Zrotation Xrotation Yrotation
                                        End Site
                                        {
                                            OFFSET  -2.727660   0.000000   0.000000
                                        }
                                    }
                                }
                            }
                            JOINT RightFinger3
                            {
                                OFFSET  -7.899780   0.000000  -1.078090
                                CHANNELS 3 Zrotation Xrotation Yrotation
                                JOINT RightFinger31
                                {
                                    OFFSET  -4.646930   0.000000   0.000000
                                    CHANNELS 3 Zrotation Xrotation Yrotation
                                    JOINT RightFinger32
                                    {
                                        OFFSET  -2.323470   0.000000   0.000000
                                        CHANNELS 3 Zrotation Xrotation Yrotation
                                        End Site
                                        {
                                            OFFSET  -2.273050   0.000000   0.000000
                                        }
                                    }
                                }
                            }
                            JOINT RightFinger4
                            {
                                OFFSET  -7.435090   0.000000  -3.252850
                                CHANNELS 3 Zrotation Xrotation Yrotation
                                JOINT RightFinger41
                                {
                                    OFFSET  -3.717550   0.000000   0.000000
                                    CHANNELS 3 Zrotation Xrotation Yrotation
                                    JOINT RightFinger42
                                    {
                                        OFFSET  -1.858770   0.000000   0.000000
                                        CHANNELS 3 Zrotation Xrotation Yrotation
                                        End Site
                                        {
                                            OFFSET  -1.818440   0.000000   0.000000
                                        }
                                    }
                                }
                            }
                        }
                    }
                }
            }
        }
    }
    JOINT LeftHip
    {
        OFFSET   9.783040   0.000000   0.000000
        CHANNELS 3 Zrotation Xrotation Yrotation
        JOINT LeftKnee
        {
            OFFSET   0.000032 -41.789100  -0.002222
            CHANNELS 3 Zrotation Xrotation Yrotation
            JOINT LeftAnkle
            {
                OFFSET   0.000087 -41.133200  -0.000135
                CHANNELS 3 Zrotation Xrotation Yrotation
                JOINT LeftToe
                {
                    OFFSET   0.000000  -6.358960  14.674500
                    CHANNELS 3 Zrotation Xrotation Yrotation
                    End Site
                    {
                        OFFSET   0.000000   0.000000   3.913200
                    }
                }
            }
        }
    }
    JOINT RightHip
    {
        OFFSET  -9.783040   0.000000   0.000000
        CHANNELS 3 Zrotation Xrotation Yrotation
        JOINT RightKnee
        {
            OFFSET   0.000047 -41.789100  -0.000896
            CHANNELS 3 Zrotation Xrotation Yrotation
            JOINT RightAnkle
            {
                OFFSET  -0.000117 -41.133300  -0.000248
                CHANNELS 3 Zrotation Xrotation Yrotation
                JOINT RightToe
                {
                    OFFSET   0.000000  -6.358970  14.674500
                    CHANNELS 3 Zrotation Xrotation Yrotation
                    End Site
                    {
                        OFFSET   0.000000   0.000000   3.913200
                    }
                }
            }
        }
    }
}
MOTION
Frames: 4
Frame Time:   0.016667
 -0.821791  89.471400  -0.830070  -2.595650  -8.475210  -4.590820   3.109820   5.220380  -1.418800   6.388500  10.353800  -3.140480  -1.602280  -2.998480  -0.081618  -2.651800  -6.066150  12.250300  -7.626370   2.013220   0.119088 -68.017800  18.678600 -10.740000  -3.816060  -9.612590  -6.556480   7.474740 -10.523800  14.765000  42.208900  28.775200 -60.890800 -22.590200   0.002933   0.004261  -6.295150   0.003184  -0.000984 -28.111500   6.306790 -11.622400 -23.526600  -0.001780  -0.008535 -16.468600  -0.001228  -0.005821 -27.592200   3.161390  -6.023400 -30.555300  -0.001706   0.005713 -20.349800  -0.001222   0.003783 -27.756900   0.790415  -1.501570 -30.598800  -0.006858   0.000105 -20.378900  -0.004651   0.007059 -27.367900   0.780176  -1.506900 -41.068000  -0.001567   0.006129 -27.351300  -0.001315   0.003978   1.307250  -5.322570   7.496130  43.210300  23.528600  72.336500 -13.337200 -20.000900 111.686000 -35.216400  11.970800  31.104300 -47.732800  41.098500  74.549400  27.309200  -0.007976   0.004255   8.654620  -0.002808   0.001640   0.218981  -0.002472  -1.041440   0.150388   0.001579  -0.001249   0.106085   0.001302  -0.003499  -0.232526   0.007247  -1.851600   0.000000   0.002069  -0.002978  -0.017720   0.001754  -0.002022  -7.583670   0.836128  -6.277930   0.000000   0.003180  -0.001882   0.000000   0.002112  -0.001260  -6.592050   1.175350 -10.067600   0.000050   0.001122  -0.009098   0.000001   0.005889  -0.006423   3.766100  12.646300   3.827300   0.649501   0.275608  14.867500  -3.568790  -2.753460   5.243730   0.000000   0.000000   0.000000   1.445710   6.736630  -5.041410   1.174780   4.770860  -0.805951  -4.585210  -2.523270   0.417846   0.000000   0.000000  -0.000000
 -0.832757  89.471400  -0.842621  -2.591410  -8.470040  -4.607110   3.105180   5.223410  -1.419670   6.379370  10.359900  -3.142120  -1.601970  -2.981060  -0.081770  -2.654920  -6.030850  12.257700  -7.624130   2.003440   0.109990 -67.990400  18.657100 -10.744900  -3.826620  -9.598460  -6.550270   7.461100 -10.533800  14.768800  42.200000  28.798100 -60.895400 -22.638600   0.002880   0.004412  -6.319340   0.003225  -0.000828 -28.126600   6.286650 -11.576900 -23.534600  -0.001968  -0.008390 -16.474200  -0.001359  -0.005718 -27.598600   3.132650  -5.967910 -30.568500  -0.001720   0.005732 -20.358600  -0.001246   0.003795 -27.758900   0.761883  -1.447190 -30.604700  -0.007022   0.000120 -20.382800  -0.004753   0.006901 -27.370900   0.752091  -1.452290 -41.070500  -0.001452   0.006009 -27.353000  -0.001238   0.003897   1.307130  -5.329900   7.492130  43.176200  23.564200  72.404300 -13.415000 -20.094000 111.630000 -35.181800  11.774400  31.086400 -47.683000  41.072200  74.484200  27.344900  -0.007804   0.004132   8.672450  -0.002687   0.001650   0.336141  -0.003324  -1.066310   0.275014   0.001559  -0.001275   0.192538   0.001250  -0.003335  -0.047639   0.001255  -1.859460   0.000000   0.002071  -0.002892   0.000000   0.001707  -0.001970  -7.704390   0.865995  -6.374770   0.000000   0.003260  -0.001929   0.000000   0.002168  -0.001291  -6.497520   1.157730 -10.062500   0.000101   0.001031  -0.009077   0.000001   0.005952  -0.006411   3.768550  12.632400   3.818920   0.647092   0.295038  14.871900  -3.575420  -2.755760   5.255480  -0.000000   0.000000   0.000000   1.436340   6.715100  -5.038420   1.191980   4.784220  -0.789335  -4.587400  -2.521930   0.416850   0.000000   0.000000   0.000000
 -0.844821  89.471400  -0.854332  -2.585910  -8.462330  -4.622920   3.099520   5.224350  -1.419600   6.368040  10.362000  -3.141470  -1.605630  -2.962690  -0.081930  -2.662690  -5.993590  12.266100  -7.622490   2.003900   0.107163 -67.959600  18.669800 -10.764500  -3.837790  -9.616280  -6.521930   7.427380 -10.503600  14.785000  42.194300  28.809700 -60.879500 -22.658000   0.002826   0.004533  -6.329010   0.003259  -0.000673 -28.126700   6.261040 -11.533100 -23.529900  -0.002158  -0.008232 -16.470900  -0.001491  -0.005610 -27.595600   3.123700  -5.952470 -30.544600  -0.001733   0.005745 -20.342700  -0.001270   0.003803 -27.752800   0.743441  -1.412670 -30.568300  -0.007184   0.000137 -20.358500  -0.004853   0.006732 -27.349500   0.733363  -1.417920 -41.037700  -0.001335   0.005880 -27.331100  -0.001161   0.003815   1.311640  -5.319060   7.490610  43.194200  23.573100  72.448300 -13.412500 -20.121300 111.610000 -35.109100  11.676900  31.036500 -47.624600  41.011900  74.481200  27.316400  -0.007647   0.004060   8.658240  -0.002567   0.001656   0.463529  -0.003903  -1.024510   0.381157   0.001536  -0.001304   0.266828   0.001198  -0.003161   0.047053  -0.001663  -1.782430   0.034854   0.002071  -0.002815   0.028605   0.001658  -0.001915  -7.681820   0.856696  -6.329570   0.000000   0.003336  -0.001980   0.000000   0.002221  -0.001320  -6.370350   1.137220 -10.078200   0.000097   0.000937  -0.009042   0.000001   0.006008  -0.006395   3.770970  12.639600   3.802620   0.646186   0.265582  14.890600  -3.576110  -2.736990   5.267090   0.000000   0.000000   0.000000   1.434860   6.701380  -5.048600   1.200850   4.783390  -0.790435  -4.588790  -2.520430   0.440915  -0.000000   0.000000   0.000000
 -0.857318  89.471400  -0.862478  -2.580000  -8.453220  -4.632580   3.093320   5.224700  -1.419520   6.355570  10.362900  -3.140820  -1.611410  -2.946700  -0.082093  -2.670350  -5.961160  12.278100  -7.622260   2.007090   0.106759 -67.936400  18.696100 -10.788500  -3.848040  -9.646300  -6.481820   7.390990 -10.458800  14.801400  42.202000  28.815900 -60.867200 -22.664700   0.002769   0.004648  -6.332350   0.003286  -0.000522 -28.115200   6.244570 -11.507200 -23.518700  -0.002348  -0.008065 -16.463100  -0.001624  -0.005496 -27.591000   3.122300  -5.950260 -30.520700  -0.001744   0.005754 -20.326800  -0.001294   0.003807 -27.743400   0.734394  -1.395930 -30.515200  -0.007342   0.000154 -20.323100  -0.004950   0.006557 -27.318100   0.723996  -1.401350 -40.990400  -0.001217   0.005744 -27.299600  -0.001084   0.003728   1.317930  -5.294990   7.490120  43.224000  23.575500  72.488400 -13.400700 -20.136100 111.601000 -35.037000  11.601300  30.989300 -47.507600  40.901500  74.451200  27.288000  -0.007489   0.003992   8.644030  -0.002448   0.001660   0.599304  -0.004354  -0.955697   0.490215   0.001509  -0.001330   0.343162   0.001147  -0.002986   0.102448  -0.002465  -1.658750   0.092499   0.002070  -0.002736   0.061606   0.001608  -0.001860  -7.647060   0.847396  -6.284370   0.000000   0.003408  -0.002028   0.000000   0.002271  -0.001348  -6.250780   1.120690 -10.122300   0.000081   0.000842  -0.009000   0.000001   0.006058  -0.006376   3.773700  12.646700   3.786170   0.646988   0.229799  14.908800  -3.577530  -2.710940   5.277740   0.000000   0.000000   0.000000   1.435350   6.695510  -5.058870   1.206800   4.777630  -0.798133  -4.589510  -2.519020   0.479881   0.000000   0.000000   0.000000
